<?xml version="1.0" standalone="no"?><!DOCTYPE svg PUBLIC "-//W3C//DTD SVG 1.1//EN" "http://www.w3.org/Graphics/SVG/1.1/DTD/svg11.dtd"><svg t="1497060757625" class="icon" style="" viewBox="0 0 1024 1024" version="1.1" xmlns="http://www.w3.org/2000/svg" p-id="7824" xmlns:xlink="http://www.w3.org/1999/xlink" width="16" height="16"><defs><style type="text/css"></style></defs><path d="M809.802058 342.201779c0-156.948565-141.977595-284.174178-299.728432-284.174178-157.750837 0-295.876708 127.225613-295.876708 284.174178 0 145.535631 292.538683 493.946832 292.538683 493.946832S809.802058 492.612441 809.802058 342.201779zM415.783123 352.229157c0-53.710272 44.444235-97.255021 99.277074-97.255021 54.832839 0 99.277074 43.543725 99.277074 97.255021 0 53.710272-44.444235 97.255021-99.277074 97.255021C460.228381 449.484178 415.783123 405.939429 415.783123 352.229157zM610.114087 844.699358c0.832971 2.536776 1.272993 5.13802 1.272993 7.791453 0 26.840298-44.446281 48.613184-99.277074 48.613184-54.831816 0-99.277074-21.771863-99.277074-48.613184 0-2.653433 0.440022-5.255701 1.274016-7.7935-60.054771 11.149944-100.564393 32.231075-100.564393 56.406684 0 35.81674 88.902796 64.84589 198.567451 64.84589 109.649306 0 198.553125-29.02915 198.553125-64.84589C710.664154 876.930433 670.158624 855.851349 610.114087 844.699358z" fill="#094eff" p-id="7825"></path></svg>