<?xml version="1.0" standalone="no"?><!DOCTYPE svg PUBLIC "-//W3C//DTD SVG 1.1//EN" "http://www.w3.org/Graphics/SVG/1.1/DTD/svg11.dtd"><svg t="1497060864482" class="icon" style="" viewBox="0 0 1024 1024" version="1.1" xmlns="http://www.w3.org/2000/svg" p-id="10568" xmlns:xlink="http://www.w3.org/1999/xlink" width="16" height="16"><defs><style type="text/css"></style></defs><path d="M809.370223 409.879158c-93.231381-30.68179-55.840796-89.130993-111.830995-111.832018-95.059006-38.546921-186.391131-37.281091-186.391131-37.281091s-91.031273-0.968048-186.387038 37.281091c-56.103786 22.512736-18.60473 81.149205-111.836111 111.832018-98.559736 32.432667-150.004409-15.096836-148.959613-73.812099 0.740874-39.36352 24.972764-83.760682 74.405617-112.578008 126.557394-73.808006 372.776122-74.55502 372.776122-74.55502s246.223844 0.748037 372.780215 74.55502c49.055253 28.630061 73.325006 72.579015 74.365708 111.721501C959.860702 394.334113 908.4191 442.459181 809.370223 409.879158L809.370223 409.879158zM383.915321 383.40418l63.444984 0 0 63.956637 127.913275 0 0-63.956637 63.956637 0 0 63.956637 256.167311 223.464491 0 149.109016c0 41.154305-44.871977 74.557066-86.027305 74.557066L212.923926 894.491391c-41.153282 0-85.005023-33.403784-85.005023-74.557066L127.918903 670.825308l255.997442-223.464491L383.916345 383.40418 383.915321 383.40418zM511.898181 799.85808c70.621431-0.001023 127.877459-57.256028 127.877459-127.872343 0-70.623477-57.256028-127.878482-127.877459-127.878482-70.616314 0-127.873366 57.255005-127.873366 127.878482C384.024815 742.602052 441.281867 799.85808 511.898181 799.85808L511.898181 799.85808z" p-id="10569" fill="#094eff"></path></svg>